# xmcd
#
# Track frame offsets:
#	150
#	10340
#	23172
#	36450
#	50022
#	74622
#	86525
#	112525
#	124800
#	138657
#	151757
#	164212
#	176260
#	187900
#	199937
#	211660
#	229462
#	242837
#	254437
#	286872
#
# Disc length: 4043 seconds
#
# Revision: 1
# Processed by: cddbd v1.5.1PL0 Copyright (c) Steve Scherf et al.
# Submitted via: audiograbber 1.83.01
#
DISCID=1d0fc914
DTITLE=Gospel Legends (Various) - Living The Gospel
DYEAR=2002
DGENRE=Gospel
TTITLE0=Dixie Hummingbirds - Christian's Automobile
TTITLE1=Swan Silvertones - O Mary, Don't You Weep
TTITLE2=Pilgrim Singers - Mother Bowed
TTITLE3=Staple Singers - Uncloudy Day
TTITLE4=Mahalia Jackson - Move On Up A Little Higher
TTITLE5=Sensational Nightinggales - Burying Ground
TTITLE6=Clara Ward - Didn't It Rain
TTITLE7=Sister Rosetta Tharpe - Peace In The Valley
TTITLE8=Alex Bradford - Too Close To Heaven
TTITLE9=Original Five Blind Boys - Our Father
TTITLE10=Bells of Joy - Let's Talk About Jesus
TTITLE11=Angelic Gospel Singers - Touch Me, Lord Jesus
TTITLE12=Dorothy Love Coates - That's Enough
TTITLE13=Consolers - Give Me My Flowers
TTITLE14=Sallie Martin Singers - Just A Closer Walk With Thee
TTITLE15=Voices of Tabernacle - The Love of God
TTITLE16=Clara Ward - How I Got Over
TTITLE17=Trumpeters - Milky White Way
TTITLE18=Mahalia Jackson - In The Upper Room
TTITLE19=Caravan - Walk Around Heaven All Day
EXTD=
EXTT0=
EXTT1=
EXTT2=
EXTT3=
EXTT4=
EXTT5=
EXTT6=
EXTT7=
EXTT8=
EXTT9=
EXTT10=
EXTT11=
EXTT12=
EXTT13=
EXTT14=
EXTT15=
EXTT16=
EXTT17=
EXTT18=
EXTT19=
PLAYORDER=
